<?xml version="1.0" standalone="no"?><!DOCTYPE svg PUBLIC "-//W3C//DTD SVG 1.1//EN" "http://www.w3.org/Graphics/SVG/1.1/DTD/svg11.dtd"><svg t="1590927726244" class="icon" viewBox="0 0 1032 1024" version="1.1" xmlns="http://www.w3.org/2000/svg" p-id="2027" xmlns:xlink="http://www.w3.org/1999/xlink" width="32.25" height="32"><defs><style type="text/css"></style></defs><path d="M2.862 1023.985h181.192V835.388h68.894v86.154h68.698v-86.154h68.893v188.597h63.193a112.432 112.432 0 0 1-26.671-72.862c0-62.34 50.56-112.897 112.901-112.897S652.86 888.782 652.86 951.123a112.432 112.432 0 0 1-26.671 72.862h99.698V885.366h-52.388v-48.26h173.669v48.26h-52.388v138.619h237.197c2.208-480.45-183.431-355.666-85.256-643.305-211.02 61.108-40.969 355.186-169.654 335.863-102.474-84.4 6.315-229.375 0.867-340.754C753.64 235.117 534.493 197.812 654.783 0.036 361.825 86.293 610.528 338.5 503.214 371.206c-138.711 8.453-114.48-141.75-96.633-238.795-276.246 160.934-3.622 462.706-108.33 491.988-83.197 17.662-56.206-198.839-143.814-202.383 84.518 183.446-184.799 295.522-151.57 601.969z m250.086 0h68.698V964.13h-68.698v59.854z m287.014-9.918c34.757 0 62.945-28.188 62.945-62.95 0-34.75-28.188-62.939-62.945-62.939s-62.95 28.188-62.95 62.945 28.194 62.95 62.95 62.95z m-501.244 9.918h145.336V835.388h68.894v86.154h68.698v-86.154h68.893v188.597h63.193a112.432 112.432 0 0 1-26.671-72.862c0-62.34 50.56-112.897 112.901-112.897S652.86 888.782 652.86 951.123a112.432 112.432 0 0 1-26.671 72.862h99.698V885.366h-52.388v-48.26h173.669v48.26h-52.388v138.619h201.156c5.21-447.939-158.231-329.222-95.493-565.933-92.727 60.457 7.822 199.658-64.972 256.313-49.911 38.853-98.852 25.66-127.401-28.369-48.337-91.467 46.505-216.082 42.305-301.874C727.78 253.269 522.156 223.084 600.89 63.424c-183.823 108.346 64.095 211.46-84.76 347.395-129.02 7.863-137.787-110.224-150.708-186.873-186.872 198.931 116.266 278.805-51.959 428.367-77.381 16.43-81.576-70.111-119.264-105.213-5.675 162.198-186.387 191.846-155.485 476.885z m214.23 0h68.698V964.13h-68.698v59.854z m287.014-9.918c34.757 0 62.945-28.188 62.945-62.95 0-34.75-28.188-62.939-62.95-62.939-34.751 0-62.94 28.188-62.94 62.945s28.189 62.95 62.945 62.95z" fill="#1296db" p-id="2028"></path></svg>