<?xml version="1.0" standalone="no"?><!DOCTYPE svg PUBLIC "-//W3C//DTD SVG 1.1//EN" "http://www.w3.org/Graphics/SVG/1.1/DTD/svg11.dtd"><svg t="1590927780156" class="icon" viewBox="0 0 1308 1024" version="1.1" xmlns="http://www.w3.org/2000/svg" p-id="3527" xmlns:xlink="http://www.w3.org/1999/xlink" width="40.875" height="32"><defs><style type="text/css"></style></defs><path d="M622.222222 384c106.24 0 192 86.755556 192 192.625778 0 105.898667-87.04 191.374222-192 191.374222s-192-85.475556-192-191.374222c0-105.870222 85.76-192.625778 192-192.625778z m481.166222-228.124444c87.495111 0 189.496889 97.905778 190.833778 179.029333v508.814222c0 82.375111-103.338667 180.280889-189.468444 180.280889H203.662222C116.224 1024 14.222222 924.842667 14.222222 843.719111V334.904889C14.222222 253.781333 116.224 155.875556 203.690667 155.875556h165.859555l60.586667-114.062223C443.562667 16.497778 471.808 0 502.784 0h301.482667c30.947556 0 59.221333 16.497778 72.675555 41.813333l60.586667 114.062223h165.831111zM270.222222 378.88v-53.76c0-20.48-16.64-37.12-37.12-37.12h-53.76c-20.48 0-37.12 16.64-37.12 37.12v53.76c0 20.48 16.64 37.12 37.12 37.12h53.76c20.48 0 37.12-16.64 37.12-37.12z m352 485.12C781.084444 864 910.222222 734.862222 910.222222 576s-129.137778-288-288-288S334.222222 417.137778 334.222222 576s129.137778 288 288 288z" fill="#1296db" p-id="3528"></path></svg>